# xmcd CD database file
#
# Track frame offsets:
#	150
#	18387
#	34061
#	50029
#	62266
#	76485
#	94596
#	114311
#	128127
#	144272
#	158524
#	170694
#	186699
#	197701
#
# Disc length: 2890 seconds
#
# Revision: 3
# Processed by: cddbd v1.5.1PL2 Copyright (c) Steve Scherf et al.
# Submitted via: CDex 1.51
#
DISCID=b70b480e
DTITLE=Varios - Barretos 99 - Os Independentes
DYEAR=1999
DGENRE=Country
TTITLE0=Abertura - Rick and Renner - Ao lado de Deus
TTITLE1=Tião Carreiro and Pardinho e Chitãozinho and Xororó - Pagode em Brasília
TTITLE2=Leandro and Leonardo - Anarriê
TTITLE3=Milionário and José Rico - Sessenta dias apaixonado
TTITLE4=João Paulo and Daniel - Pedindo bis
TTITLE5=Roberta Miranda - Meu dengo
TTITLE6=Chrystian and Ralf - Oito segundos
TTITLE7=Rick and Renner - Tô querendo de novo
TTITLE8=Guilherme and Santiago - Bicho bom é mulher
TTITLE9=Bruno and Marrone - Goiás é mais
TTITLE10=Trio Parada Dura - Faz isso não paixão
TTITLE11=Legião do Samba - Cumpade e cumade
TTITLE12=Gaúcho da Fronteira e Brasas do Forró - Forronerão
TTITLE13=Cézar and Paulinho - Pot-pourri de catira Passa morena_Tiro a queima bucha_O meu bem falou_Rapaz solteiro
EXTD=YEAR: 1999
EXTT0=
EXTT1=
EXTT2=
EXTT3=
EXTT4=
EXTT5=
EXTT6=
EXTT7=
EXTT8=
EXTT9=
EXTT10=
EXTT11=
EXTT12=
EXTT13=
PLAYORDER=
